<svg width="32" height="32" viewBox="0 0 32 32" fill="none" xmlns="http://www.w3.org/2000/svg">
<rect width="32" height="32" rx="5.77778" fill="url(#paint0_radial_2306_10)"/>
<path d="M14.3828 25C14.0384 24.0113 13.6123 22.916 13.1046 21.7141C12.6151 20.5121 12.0983 19.3102 11.5544 18.1082C11.0286 19.252 10.5028 20.4443 9.97699 21.685C9.45119 22.9063 8.99791 24.0113 8.61715 25H5C5.18131 24.4766 5.44421 23.8465 5.7887 23.1099C6.15133 22.3732 6.54114 21.5784 6.95816 20.7254C7.39331 19.8724 7.84658 19 8.31799 18.1082C8.7894 17.1971 9.24268 16.3247 9.67782 15.4911L5.27197 7H8.88912L11.5544 12.7577L14.3556 7H17.728L13.431 15.4039C13.9205 16.2375 14.401 17.1099 14.8724 18.021C15.3438 18.9321 15.7789 19.8239 16.1778 20.6963C16.5948 21.5493 16.9575 22.3538 17.2657 23.1099C17.5739 23.8465 17.8187 24.4766 18 25H14.3828Z" fill="black"/>
<path d="M19.0989 25C18.6274 23.6624 18.1263 22.1502 17.5958 20.4637C17.0653 18.7771 16.5642 17.1002 16.0926 15.433C15.6211 13.7464 15.1986 12.1567 14.8253 10.664C14.4519 9.17124 14.1768 7.94992 14 7H17.8316C17.9495 7.93053 18.1263 9.01615 18.3621 10.2569C18.5979 11.4782 18.8533 12.748 19.1284 14.0662C19.4232 15.3651 19.7277 16.6543 20.0421 17.9338C20.3761 19.1939 20.7004 20.3279 21.0147 21.336C21.3291 20.3473 21.6435 19.2229 21.9579 17.9628C22.2723 16.6834 22.567 15.3942 22.8421 14.0953C23.1172 12.7771 23.3726 11.4976 23.6084 10.2569C23.8442 9.01615 24.0407 7.93053 24.1979 7H28C27.7642 8.16317 27.4695 9.46204 27.1158 10.8966C26.7818 12.3312 26.3888 13.8433 25.9368 15.433C25.5046 17.0032 25.0232 18.6123 24.4926 20.2601C23.9621 21.8885 23.4119 23.4685 22.8421 25H19.0989Z" fill="black"/>
<defs>
<radialGradient id="paint0_radial_2306_10" cx="0" cy="0" r="1" gradientUnits="userSpaceOnUse" gradientTransform="translate(16 16) rotate(90) scale(16)">
<stop stop-color="#73FF9A"/>
<stop offset="1" stop-color="#41D196"/>
</radialGradient>
</defs>
</svg>
