<svg width="32" height="32" viewBox="0 0 32 32" fill="none" xmlns="http://www.w3.org/2000/svg">
<rect width="32" height="32" rx="5.77778" fill="url(#paint0_radial_2306_10)"/>
<g filter="url(#filter0_d_2306_10)">
<path d="M9.10313 8.4704H11.2871C11.7586 8.4704 12.0637 8.54666 12.2023 8.6992C12.3549 8.85173 12.4311 9.17067 12.4311 9.656V21.1168H14.1159C14.3239 21.1168 14.4626 21.1445 14.5319 21.2C14.6013 21.2555 14.6359 21.3595 14.6359 21.512V23.5088H9.85193C9.63007 23.5088 9.4498 23.4395 9.31113 23.3008C9.17247 23.1483 9.10313 22.9472 9.10313 22.6976V8.4704ZM8.47913 23.5088H5.46313V21.512C5.46313 21.3595 5.4978 21.2555 5.56713 21.2C5.63647 21.1445 5.77513 21.1168 5.98313 21.1168H8.47913V23.5088ZM8.47913 10.8624H6.19113C5.84447 10.8624 5.67113 10.6683 5.67113 10.28V8.4704H8.47913V10.8624Z" fill="white"/>
<path d="M24.7481 23.5296C24.7343 23.5296 24.7135 23.5296 24.6857 23.5296L23.1257 23.5088L23.1673 17.0192C23.1673 16.7973 23.1327 16.6448 23.0633 16.5616C23.0079 16.4645 22.8553 16.416 22.6057 16.416H21.7321V14.44L24.6857 14.4608C25.8921 14.4747 26.4953 15.0987 26.4953 16.3328L26.4745 21.512C26.4745 22.1915 26.322 22.6976 26.0169 23.0304C25.7119 23.3632 25.2889 23.5296 24.7481 23.5296ZM19.4649 18.6V20.9088C19.4511 21.1307 19.4788 21.2901 19.5481 21.3872C19.6313 21.4843 19.8185 21.5328 20.1097 21.5328H22.2937V23.5088H17.9881C17.2116 23.5088 16.7055 23.3285 16.4697 22.968C16.2479 22.6075 16.1369 22.0459 16.1369 21.2832V19.4944C16.1369 19.0645 16.1785 18.808 16.2617 18.7248C16.3588 18.6416 16.6639 18.6 17.1769 18.6H19.4649ZM20.3177 14.44H20.8793V16.416L17.8217 16.3952C17.3364 16.3952 16.9828 16.2981 16.7609 16.104C16.5391 15.896 16.4281 15.5008 16.4281 14.9184L16.4489 10.0096C16.4489 9.45493 16.5113 9.10827 16.6361 8.9696C16.7609 8.81706 16.858 8.71306 16.9273 8.6576C16.9967 8.58826 17.1353 8.53973 17.3433 8.512C17.5513 8.48426 17.7039 8.4704 17.8009 8.4704H19.7977L19.7561 13.816C19.7561 14.0379 19.7839 14.1973 19.8393 14.2944C19.9087 14.3915 20.0681 14.44 20.3177 14.44ZM26.5369 8.4704V10.28C26.5369 10.6683 26.3636 10.8624 26.0169 10.8624L20.6297 10.8832V8.4704H26.5369Z" fill="white"/>
</g>
<defs>
<filter id="filter0_d_2306_10" x="5.46313" y="8.4704" width="21.0737" height="16.0592" filterUnits="userSpaceOnUse" color-interpolation-filters="sRGB">
<feFlood flood-opacity="0" result="BackgroundImageFix"/>
<feColorMatrix in="SourceAlpha" type="matrix" values="0 0 0 0 0 0 0 0 0 0 0 0 0 0 0 0 0 0 127 0" result="hardAlpha"/>
<feOffset dy="1"/>
<feComposite in2="hardAlpha" operator="out"/>
<feColorMatrix type="matrix" values="0 0 0 0 0 0 0 0 0 0 0 0 0 0 0 0 0 0 0.08 0"/>
<feBlend mode="normal" in2="BackgroundImageFix" result="effect1_dropShadow_2306_10"/>
<feBlend mode="normal" in="SourceGraphic" in2="effect1_dropShadow_2306_10" result="shape"/>
</filter>
<radialGradient id="paint0_radial_2306_10" cx="0" cy="0" r="1" gradientUnits="userSpaceOnUse" gradientTransform="translate(16 16) rotate(90) scale(16)">
<stop stop-color="#73FF9A"/>
<stop offset="1" stop-color="#41D196"/>
</radialGradient>
</defs>
</svg>
